<svg width="151" height="141" viewBox="0 0 151 141" fill="none" xmlns="http://www.w3.org/2000/svg">
<path d="M37 0.737768L50.5 10.7378C46.8333 15.4045 43 22.0711 39 30.7378C35 39.4044 31.6667 49.0711 29 59.7378C26.6667 70.0711 26.1667 80.2378 27.5 90.2378C31.8333 88.2378 36 87.2378 40 87.2378C46.3333 87.2378 51.6667 89.5711 56 94.2378C60.6667 98.9045 63 104.738 63 111.738C63 121.071 60.1667 128.238 54.5 133.238C49.1667 138.238 42.8333 140.738 35.5 140.738C23.8333 140.738 15 136.404 9 127.738C3 118.738 1.90735e-06 107.904 1.90735e-06 95.2378C1.90735e-06 86.9044 1.5 76.7378 4.5 64.7378C7.83334 52.7378 12.1667 41.0711 17.5 29.7378C23.1667 18.0711 29.6667 8.40444 37 0.737768ZM125 0.737768L138.5 10.7378C134.833 15.4045 131 22.0711 127 30.7378C123 39.4044 119.667 49.0711 117 59.7378C114.667 70.0711 114.167 80.2378 115.5 90.2378C119.833 88.2378 124 87.2378 128 87.2378C134.333 87.2378 139.667 89.5711 144 94.2378C148.667 98.9045 151 104.738 151 111.738C151 121.071 148.167 128.238 142.5 133.238C137.167 138.238 130.833 140.738 123.5 140.738C111.833 140.738 103 136.404 97 127.738C91 118.738 88 107.904 88 95.2378C88 86.9044 89.5 76.7378 92.5 64.7378C95.8333 52.7378 100.167 41.0711 105.5 29.7378C111.167 18.0711 117.667 8.40444 125 0.737768Z" fill="white" fill-opacity="0.14"/>
</svg>
