<svg width="60" height="46" viewBox="0 0 60 46" fill="none" xmlns="http://www.w3.org/2000/svg">
<path d="M55 0.875H5C2.2375 0.875 0 3.1125 0 5.875V19.375C0 19.925 0.45 20.375 1 20.375H53.25C53.8 20.375 54.25 19.925 54.25 19.375C54.25 18.825 53.8 18.375 53.25 18.375H2V11.875H53.25C53.8 11.875 54.25 11.425 54.25 10.875C54.25 10.325 53.8 9.875 53.25 9.875H2V5.875C2 4.225 3.35 2.875 5 2.875H55C56.65 2.875 58 4.225 58 5.875V40.125C58 41.775 56.65 43.125 55 43.125H5C3.35 43.125 2 41.775 2 40.125V25.125C2 24.575 1.55 24.125 1 24.125C0.45 24.125 0 24.575 0 25.125V40.125C0 42.8875 2.2375 45.125 5 45.125H55C57.7625 45.125 60 42.8875 60 40.125V5.875C60 3.1125 57.7625 0.875 55 0.875ZM9.125 29.75H17.5C18.05 29.75 18.5 29.3 18.5 28.75C18.5 28.2 18.05 27.75 17.5 27.75H9.125C8.575 27.75 8.125 28.2 8.125 28.75C8.125 29.3 8.575 29.75 9.125 29.75ZM9.125 36H17.5C18.05 36 18.5 35.55 18.5 35C18.5 34.45 18.05 34 17.5 34H9.125C8.575 34 8.125 34.45 8.125 35C8.125 35.55 8.575 36 9.125 36Z" fill="white"/>
</svg>
