<svg width="10" height="19" viewBox="0 0 10 19" fill="none" xmlns="http://www.w3.org/2000/svg">
<path d="M9.49919 0.494945L7.16501 0.491211C4.54265 0.491211 2.84797 2.22473 2.84797 4.90782V6.94417H0.501059C0.298259 6.94417 0.134033 7.10809 0.134033 7.31029V10.2607C0.134033 10.4629 0.298446 10.6267 0.501059 10.6267H2.84797V18.0716C2.84797 18.2738 3.01219 18.4375 3.21499 18.4375H6.27704C6.47984 18.4375 6.64406 18.2736 6.64406 18.0716V10.6267H9.38814C9.59094 10.6267 9.75517 10.4629 9.75517 10.2607L9.75629 7.31029C9.75629 7.2132 9.71753 7.12023 9.64881 7.05152C9.58008 6.98282 9.48645 6.94417 9.38908 6.94417H6.64406V5.21793C6.64406 4.38823 6.84237 3.96703 7.92641 3.96703L9.49881 3.96647C9.70142 3.96647 9.86565 3.80255 9.86565 3.60053V0.86088C9.86565 0.659055 9.70161 0.495318 9.49919 0.494945Z" fill="#9D8AE6"/>
</svg>
