<?xml version="1.0" encoding="iso-8859-1"?>
<!-- Generator: Adobe Illustrator 17.1.0, SVG Export Plug-In . SVG Version: 6.00 Build 0)  -->
<!DOCTYPE svg PUBLIC "-//W3C//DTD SVG 1.1//EN" "http://www.w3.org/Graphics/SVG/1.1/DTD/svg11.dtd">
<svg version="1.1" id="Capa_1" xmlns="http://www.w3.org/2000/svg" xmlns:xlink="http://www.w3.org/1999/xlink" x="0px" y="0px"
	 viewBox="0 0 440.752 440.752" style="enable-background:new 0 0 440.752 440.752;" xml:space="preserve">
<path d="M339.335,118.379H231.122v-11.547c13.031-6.996,18.581-20.286,19.72-28.146c0.052-0.356,0.078-0.716,0.078-1.076V54.771
	c0-0.726-0.109-1.439-0.311-2.123c0.197-0.666,0.309-1.371,0.311-2.101c0.001-0.381-0.026-5.926-2.295-12.585
	c7.488-2.756,12.853-9.939,12.853-18.372c0-10.803-8.788-19.59-19.59-19.59c-9.273,0-17.045,6.482-19.064,15.15
	c-2.766-0.537-5.699-0.816-8.805-0.816c-28.648,0-36.754,23.541-37.038,35.989c-0.018,0.806,0.095,1.581,0.313,2.313
	c-0.204,0.688-0.315,1.407-0.315,2.136v22.838c0,0.36,0.026,0.72,0.078,1.076c1.14,7.86,6.69,21.15,19.721,28.146v11.547h-76.392
	c-6.323,0-11.467-5.145-11.467-11.468c0-12.279,4.265-24.27,12.009-33.762c2.618-3.21,2.139-7.935-1.07-10.553
	c-3.21-2.618-7.935-2.14-10.553,1.071c-9.921,12.161-15.386,27.519-15.386,43.243c0,14.595,11.873,26.468,26.467,26.468h56.555
	c0.404,3.256,1.227,6.381,2.417,9.323c2.935,13.241,5.873,33.792,1.863,52.61c-17.316,6.34-32.766,17.817-43.843,32.671
	c-12.36,16.573-18.893,36.291-18.893,57.021c0,0.051,0.007,0.102,0.008,0.152c0.003,0.137,0.01,0.271,0.021,0.406
	c0.009,0.119,0.019,0.238,0.033,0.355c0.015,0.117,0.034,0.232,0.053,0.348c0.022,0.131,0.045,0.262,0.074,0.391
	c0.023,0.102,0.051,0.203,0.079,0.305c0.036,0.135,0.073,0.268,0.116,0.4c0.033,0.1,0.071,0.198,0.108,0.297
	c0.048,0.126,0.095,0.251,0.149,0.373c0.046,0.106,0.099,0.21,0.151,0.314c0.055,0.109,0.108,0.219,0.168,0.325
	c0.063,0.112,0.131,0.22,0.2,0.329c0.06,0.094,0.118,0.189,0.181,0.279c0.076,0.109,0.157,0.215,0.239,0.32
	c0.068,0.088,0.135,0.175,0.207,0.26c0.082,0.096,0.169,0.189,0.256,0.281c0.085,0.09,0.169,0.179,0.258,0.264
	c0.081,0.078,0.165,0.153,0.251,0.229c0.107,0.094,0.215,0.186,0.328,0.273c0.038,0.029,0.071,0.063,0.11,0.092
	c0.844,0.636,21.044,15.64,53.907,23.208c3.383,0.779,6.998,1.481,10.788,2.089v116.959c0,4.142,3.358,7.5,7.5,7.5
	c4.142,0,7.5-3.358,7.5-7.5v-115.25c3.608,0.244,7.331,0.389,11.184,0.389c7.797,0,16.08-0.555,24.763-1.85
	c6.348,7.374,17.984,24.565,14.081,37.824c-2.8,9.51-13.416,16.601-31.554,21.076c-4.021,0.992-6.477,5.057-5.485,9.078
	c0.844,3.418,3.906,5.705,7.276,5.705c0.595,0,1.199-0.071,1.803-0.221c23.714-5.851,37.967-16.433,42.363-31.451
	c5.018-17.142-4.741-35-12.068-45.282c16.415-4.101,33.971-10.991,52.212-21.817c0.048-0.029,0.092-0.063,0.139-0.092
	c0.129-0.081,0.255-0.164,0.378-0.252c0.09-0.064,0.178-0.13,0.264-0.197c0.1-0.078,0.198-0.158,0.294-0.24
	c0.097-0.084,0.192-0.17,0.285-0.26c0.078-0.074,0.154-0.151,0.23-0.23c0.095-0.1,0.188-0.2,0.277-0.305
	c0.068-0.079,0.134-0.16,0.199-0.242c0.083-0.107,0.164-0.213,0.241-0.322c0.065-0.094,0.127-0.188,0.188-0.283
	c0.065-0.103,0.13-0.207,0.19-0.314c0.063-0.11,0.122-0.225,0.181-0.339c0.048-0.096,0.095-0.192,0.14-0.29
	c0.058-0.128,0.11-0.257,0.161-0.389c0.035-0.092,0.069-0.184,0.101-0.276c0.046-0.136,0.088-0.273,0.126-0.412
	c0.027-0.098,0.053-0.197,0.076-0.296c0.03-0.13,0.058-0.263,0.081-0.396c0.021-0.117,0.038-0.233,0.054-0.352
	c0.015-0.117,0.028-0.234,0.038-0.353c0.012-0.142,0.018-0.282,0.022-0.425c0.001-0.06,0.009-0.121,0.009-0.184
	c0-0.082-0.005-0.162-0.005-0.244c-0.001-0.023-0.001-0.046-0.001-0.068c-0.065-20.615-6.589-40.219-18.886-56.708
	c-11.138-14.935-26.696-26.46-44.127-32.779c-3.815-16.266-0.955-37.71,1.73-51.51c1.415-3.228,2.383-6.691,2.833-10.315h88.376
	c4.142,0,7.5-3.357,7.5-7.5S343.477,118.379,339.335,118.379z M237.297,19.59c0-2.531,2.059-4.59,4.59-4.59
	c2.531,0,4.59,2.059,4.59,4.59c0,2.531-2.059,4.591-4.59,4.591c-0.838,0-1.615-0.243-2.292-0.637
	c-0.454-0.429-0.918-0.844-1.393-1.243C237.64,21.539,237.297,20.607,237.297,19.59z M214.018,29.334
	c5.761,0,10.342,1.285,13.835,3.896c0.643,0.661,1.335,1.269,2.064,1.835c0.73,0.762,1.395,1.604,2.002,2.521
	c-5.788-2.651-11.75-3.987-17.844-3.987c-6.657,0-12.621,1.626-17.672,3.845C200.165,31.998,205.945,29.334,214.018,29.334z
	 M191.978,57.936c3.574-3.173,11.839-9.338,22.097-9.338c7.341,0,14.679,3.178,21.844,9.452v18.911
	c-0.643,3.317-4.489,18.153-21.944,19.41h-0.052c-17.515-1.262-21.328-16.193-21.945-19.4V57.936z M204.276,133.379
	c4.142,0,7.5-3.357,7.5-7.5v-14.649c0.467,0.044,0.929,0.095,1.407,0.126c0.162,0.011,0.323,0.016,0.485,0.016h0.562
	c0.162,0,0.323-0.005,0.485-0.016c0.478-0.031,0.939-0.082,1.406-0.126v14.649c0,4.143,3.358,7.5,7.5,7.5h11.333
	c-0.381,1.667-0.796,3.57-1.22,5.662c-3.724,7.139-11.192,12.027-19.786,12.027c-8.935,0-16.655-5.283-20.213-12.888
	c-0.397-1.731-0.791-3.337-1.169-4.802H204.276z M196.802,193.565c1.702-10.667,1.66-21.466,0.792-31.282
	c4.941,2.421,10.492,3.785,16.355,3.785c5.85,0,11.388-1.357,16.32-3.768c-0.931,10.16-1.093,21.171,0.534,31.265H196.802z
	 M294.292,280.753c-37.659,21.306-76.293,27.694-114.897,18.982c-22.942-5.179-39.312-14.496-45.809-18.643
	c1.483-31.211,20.624-58.385,49.223-70.316c-3.078,5.939-5.827,13.152-5.827,19.979c0,4.143,3.358,7.5,7.5,7.5
	c4.142,0,7.5-3.357,7.5-7.5c0-6.557,5.632-16.488,9.796-22.189h2.591v29.658c0,4.143,3.358,7.5,7.5,7.5c4.142,0,7.5-3.357,7.5-7.5
	v-29.658h2.586c3.36,4.634,9.8,14.983,9.8,22.189c0,4.143,3.358,7.5,7.5,7.5c4.142,0,7.5-3.357,7.5-7.5
	c0-7.599-3.405-15.673-6.88-21.939C271.232,219.455,292.59,247.826,294.292,280.753z"/>
<g>
</g>
<g>
</g>
<g>
</g>
<g>
</g>
<g>
</g>
<g>
</g>
<g>
</g>
<g>
</g>
<g>
</g>
<g>
</g>
<g>
</g>
<g>
</g>
<g>
</g>
<g>
</g>
<g>
</g>
</svg>
