<?xml version="1.0" encoding="iso-8859-1"?>
<!-- Generator: Adobe Illustrator 18.0.0, SVG Export Plug-In . SVG Version: 6.00 Build 0)  -->
<!DOCTYPE svg PUBLIC "-//W3C//DTD SVG 1.1//EN" "http://www.w3.org/Graphics/SVG/1.1/DTD/svg11.dtd">
<svg version="1.1" id="Capa_1" xmlns="http://www.w3.org/2000/svg" xmlns:xlink="http://www.w3.org/1999/xlink" x="0px" y="0px"
	 viewBox="0 0 495.392 495.392" style="enable-background:new 0 0 495.392 495.392;" xml:space="preserve">
<g>
	<path d="M250.339,98.323c0.384,0.009,0.763,0.013,1.145,0.013c12.895,0,25.084-4.967,34.323-13.985
		c9.255-9.033,14.515-21.129,14.81-34.058c0.3-13.13-4.53-25.591-13.601-35.087c-9.071-9.496-21.298-14.892-34.427-15.192
		c-13.335-0.302-25.958,4.685-35.471,13.972c-9.254,9.032-14.513,21.128-14.81,34.057c-0.3,13.13,4.53,25.591,13.602,35.088
		C224.982,92.626,237.209,98.022,250.339,98.323z M251.442,8.5c0.316,0,0.633,0.003,0.951,0.011
		c10.86,0.248,20.973,4.711,28.476,12.566c7.503,7.854,11.498,18.161,11.249,29.021c-0.508,22.228-19.24,40.287-41.584,39.727
		c-10.86-0.248-20.974-4.711-28.477-12.566c-7.503-7.855-11.499-18.162-11.25-29.022C211.308,26.325,229.538,8.5,251.442,8.5z"/>
	<path d="M247.206,325.895l27.932,143.146c3.009,15.531,16.665,26.352,31.928,26.352c2.045,0,4.117-0.194,6.197-0.597
		c8.533-1.652,15.91-6.527,20.774-13.728c4.864-7.2,6.633-15.864,4.98-24.4L305.368,282.45c32.38-2.11,61.441-6.021,85.987-11.509
		c28.487-6.37,62.444-17.797,62.444-36.064c0-27.794-74.167-42.698-144.217-47.446l0.303-8.366l112.48-11.952
		c13.51-1.438,23.334-13.598,21.899-27.107c-1.437-13.511-13.581-23.334-27.105-21.898l-115.026,12.225
		c-2.377-4.044-5.228-7.848-8.549-11.325c-11.27-11.799-26.46-18.502-42.773-18.875c-0.477-0.011-0.948-0.016-1.423-0.016
		c-16.021,0-31.166,6.17-42.645,17.374c-4.047,3.95-7.465,8.379-10.229,13.149c-0.169-0.039-0.334-0.088-0.51-0.106L79.083,118.108
		c-13.502-1.434-25.668,8.388-27.105,21.898c-1.435,13.51,8.39,25.67,21.899,27.107l113.768,12.089l-0.306,8.466
		c-0.336-0.058-0.681-0.089-1.036-0.061c-69.957,4.961-144.71,19.984-144.71,47.271c0,25.26,65.858,41.359,142.643,47.062
		l-33.819,174.732c-1.651,8.531,0.117,17.195,4.982,24.395c4.864,7.2,12.241,12.075,20.774,13.728
		c2.08,0.402,4.151,0.597,6.197,0.597c15.262-0.001,28.919-10.82,31.926-26.346l27.947-143.151H247.206z M418.058,126.561
		c8.849-0.946,16.813,5.494,17.754,14.344c0.94,8.849-5.495,16.814-14.345,17.756l-111.272,11.824l0.285-7.888
		c0.192-8.398-1.317-16.572-4.354-24.141L418.058,126.561z M249.389,108.616c0.41,0,0.816,0.004,1.228,0.014
		c14.044,0.321,27.12,6.091,36.821,16.248c9.701,10.155,14.866,23.481,14.546,37.468l-3.748,103.744
		c-0.064,2.825-0.366,5.594-0.869,8.297c-16.034,0.907-32.689,1.376-49.671,1.376c-18.448,0-36.512-0.552-53.811-1.62
		c-0.601-3.399-0.87-6.88-0.79-10.403l3.748-103.741C197.493,131.666,221.065,108.616,249.389,108.616z M74.775,158.66
		c-8.85-0.942-15.285-8.907-14.345-17.756c0.94-8.851,8.897-15.29,17.754-14.344l114.417,12.159
		c-2.621,6.628-4.087,13.723-4.254,21.027l-0.396,10.939L74.775,158.66z M50.092,234.878c0-14.102,47.949-32.49,136.811-38.792
		c0.045-0.003,0.087-0.018,0.132-0.022l-2.437,67.425c-0.078,3.402,0.138,6.765,0.605,10.069
		c-29.595-2.157-56.694-5.854-79.313-10.912C64.751,253.448,50.092,242.271,50.092,234.878z M205.951,467.423
		c-2.52,13.011-15.148,21.546-28.164,19.026c-2.787-0.539-5.393-1.569-7.761-2.982l27.725-134.072
		c0.476-2.298-1.003-4.547-3.302-5.022c-2.296-0.47-4.547,1.003-5.022,3.302l-26.684,129.039c-0.098-0.139-0.208-0.264-0.303-0.404
		c-3.593-5.318-4.899-11.719-3.679-18.021l32.174-166.231c2.709,5.44,6.245,10.504,10.563,15.023
		c8.812,9.223,20.024,15.314,32.29,17.72L205.951,467.423z M244.468,317.454c-14.044-0.321-27.121-6.091-36.823-16.247
		c-5.146-5.387-9.002-11.67-11.454-18.466c16.974,1.01,34.332,1.522,51.505,1.522c0.003,0,0.004,0,0.008,0
		c16.121,0,31.955-0.422,47.264-1.235c-7.473,20.031-26.881,34.441-49.271,34.441C245.286,317.468,244.88,317.464,244.468,317.454z
		 M330.673,458.287c1.221,6.303-0.086,12.703-3.679,18.021c-3.593,5.319-9.044,8.921-15.347,10.141
		c-13.016,2.522-25.645-6.016-28.166-19.032l-27.771-142.282c12.241-2.018,23.575-7.705,32.626-16.539
		c4.183-4.083,7.699-8.675,10.511-13.629L330.673,458.287z M389.501,262.647c-23.66,5.29-52.224,9.094-83.418,11.2
		c0.362-2.471,0.592-4.974,0.649-7.506l2.544-70.409c88.363,6.012,136.023,24.489,136.023,38.946
		C445.299,242.271,430.641,253.448,389.501,262.647z"/>
	<path d="M279.454,252.361c0.068,0.003,0.136,0.005,0.202,0.005c2.256,0,4.136-1.774,4.242-4.051l4.499-95.995
		c0.11-2.345-1.701-4.335-4.046-4.444c-2.396-0.113-4.335,1.702-4.444,4.046l-4.499,95.995
		C275.298,250.261,277.109,252.251,279.454,252.361z"/>
</g>
<g>
</g>
<g>
</g>
<g>
</g>
<g>
</g>
<g>
</g>
<g>
</g>
<g>
</g>
<g>
</g>
<g>
</g>
<g>
</g>
<g>
</g>
<g>
</g>
<g>
</g>
<g>
</g>
<g>
</g>
</svg>
