<?xml version="1.0" encoding="iso-8859-1"?>
<!-- Generator: Adobe Illustrator 18.1.1, SVG Export Plug-In . SVG Version: 6.00 Build 0)  -->
<svg version="1.1" id="Capa_1" xmlns="http://www.w3.org/2000/svg" xmlns:xlink="http://www.w3.org/1999/xlink" x="0px" y="0px"
	 viewBox="0 0 52.023 52.023" style="enable-background:new 0 0 52.023 52.023;" xml:space="preserve">
<g>
	<g>
		<path style="fill:#030104;" d="M51.806,26.383c-0.271-1.121-0.871-2.143-1.675-2.963c-1.401-1.433-3.51-2.188-5.504-1.992
			c-0.114-0.223-0.415-0.235-0.718-0.149c-0.529-0.274-1.121-0.449-1.764-0.462c-2.184-0.042-3.887,1.852-3.926,3.962
			c-0.041,2.173,1.805,3.921,3.926,3.962c2.184,0.042,3.888-1.852,3.928-3.962c-0.006-0.294-0.047-0.578-0.11-0.854
			c0.136-0.068,0.229-0.224,0.282-0.392c0.712-0.06,1.482-0.099,2.128,0.243c0.812,0.432,0.854,1.499,1.116,2.271
			c0.285,0.842,0.701,1.641,1.16,2.397c0.19,0.315,0.609,0.758,0.687,1.099c0.03,0.133,0.185,0.174,0.294,0.118
			c0.416-0.207,0.381-0.96,0.391-1.334C52.04,27.674,51.96,27.019,51.806,26.383z M42.146,27.941
			c-1.744,0.034-3.094-1.478-3.127-3.162c-0.032-1.735,1.433-3.129,3.127-3.162c1.744-0.032,3.096,1.479,3.127,3.162
			C45.241,26.514,43.89,27.907,42.146,27.941z M45.421,22.641c0.203,0.13,0.402,0.287,0.471,0.521
			c0.025,0.09-0.008,0.223-0.074,0.301C45.712,23.173,45.585,22.896,45.421,22.641z M50.997,28.245
			c-0.592-0.962-1.075-1.99-1.352-3.088c-0.188-0.74-0.445-1.395-1.154-1.771c-0.656-0.348-1.473-0.312-2.202-0.254l0,0
			c-0.06-0.405-0.399-0.664-0.724-0.873c-0.207-0.133-0.428-0.244-0.639-0.371c-0.047-0.026-0.084-0.049-0.113-0.07
			c1.701-0.114,3.41,0.471,4.705,1.579c0.746,0.639,1.315,1.464,1.676,2.376c0.197,0.504,0.318,1.038,0.384,1.574
			c0.035,0.287,0.161,1.285,0.003,1.748C51.413,28.796,51.155,28.501,50.997,28.245z"/>
		<path style="fill:#030104;" d="M42.267,34.852c-0.088-0.174-0.199-0.48-0.348-0.689c-0.279-0.396-0.604-0.763-0.923-1.127
			c-0.64-0.729-1.433-1.445-1.901-2.305c-1.006-3.588-1.632-7.514-0.994-11.22c0.033-0.194-0.024-0.336-0.184-0.452
			c-2.337-1.715-5.064-3.1-6.797-5.5c-0.533-0.738-1.081-1.363-1.874-1.833c-0.701-0.416-1.499-0.637-2.308-0.704
			c-0.739-0.062-1.499,0.057-2.176,0.349c-1.324,0.386-2.677,0.628-4.062,0.426c-1.572-0.23-3.137-0.516-4.71-0.739
			c-1.561-0.222-3.126-0.394-4.701-0.468c-1.542-0.072-3.065,0.073-4.604,0.084c-0.874,0.006-2.098-0.16-2.819,0.461
			c-0.299,0.257-0.421,0.59-0.48,0.969c-0.052,0.334-0.406,0.626-0.633,0.845c-0.686,0.663-1.473,1.212-2.112,1.923
			c-0.25,0.278-0.455,0.582-0.583,0.934c-0.145,0.399,0.004,0.72,0.224,1.052c0.267,0.405,0.566,0.611,1.06,0.677
			c0.549,0.074,1.157-0.022,1.592-0.382c0.048-0.021,0.095-0.055,0.138-0.104c0.489-0.57,1.148-1.022,1.737-1.483
			c0.501-0.393,1.02-0.934,1.583-1.225c0.977-0.503,2.314-0.321,3.35-0.155c0.985,0.158,1.96,0.413,2.933,0.637
			c3.517,0.812,7.034,1.671,10.58,2.364c0.168,0.435,0.341,0.859,0.484,1.264c0.494,1.406,0.843,2.851,0.749,4.349
			c-0.098,1.562-0.453,3.131-0.658,4.683c-0.211,1.589-0.38,3.182-0.451,4.784c-0.07,1.588,0.053,3.147,0.138,4.73
			c0.062,1.145,0.015,2.368,0.529,3.424c0.354,0.728,0.912,0.963,1.662,1.008c0.865,0.054,1.74,0.008,2.604-0.039
			c0.64-0.033,1.465,0.015,2.062-0.256c0.342-0.154,0.749-0.513,0.951-0.832c0.274-0.437,0.176-0.935-0.034-1.373
			c-0.434-0.899-1.484-0.871-2.335-0.871c-0.806,0.002-1.683,0.197-2.022-0.717c-0.367-0.981-0.137-2.203,0.039-3.199
			c0.383-2.196,0.924-4.373,1.395-6.551c0.52-2.412,1.033-4.826,1.484-7.252c0.073-0.404,0.14-0.811,0.207-1.214
			c0.306,0.465,0.541,0.996,0.775,1.464c0.43,0.854,0.837,1.741,1.421,2.506c0.214,0.277,0.45,0.528,0.75,0.718
			c0.419,0.263,0.92,0.358,1.341,0.641c0.901,0.608,0.977,1.882,1.176,2.851c0.238,1.16,0.465,2.324,0.76,3.473
			c0.188,0.729,0.426,1.29,0.89,1.88c0.74,0.94,1.563,1.822,2.386,2.69c0.457,0.486,0.933,0.957,1.395,1.438
			c0.431,0.451,0.841,0.933,1.349,1.3c0.312,0.228,0.728,0.233,1.005-0.047c0.256-0.258,0.201-0.666,0.111-0.98
			C43.181,36.257,42.638,35.585,42.267,34.852z M37.374,31.576c-0.166-0.305-0.238-0.682-0.326-1.014
			c-0.148-0.566-0.271-1.14-0.395-1.712c-0.248-1.159-0.408-2.366-0.754-3.5c-0.25-0.821-0.812-1.434-1.562-1.831
			c-0.326-0.175-0.742-0.237-1.035-0.464c-0.298-0.231-0.513-0.56-0.713-0.871c-0.49-0.771-0.869-1.613-1.283-2.426
			c-0.326-0.637-0.666-1.36-1.213-1.84c-0.201-0.177-0.619-0.144-0.671,0.177c-0.722,4.63-1.821,9.205-2.807,13.785
			c-0.224,1.031-0.447,2.062-0.579,3.108c-0.123,0.974-0.162,2.039,0.281,2.942c0.391,0.793,1.141,0.933,1.938,0.935
			c0.812,0.002,2.171-0.296,2.435,0.733c0.102,0.398-0.598,0.813-0.906,0.881c-0.158,0.033-0.542,0.053-0.782,0.07
			c-0.88,0.062-1.764,0.101-2.647,0.099c-0.318-0.001-0.648,0.001-0.967-0.043c-0.322-0.045-0.531-0.341-0.703-0.693
			c-0.239-0.491-0.268-1.104-0.305-1.64c-0.049-0.704-0.06-1.41-0.12-2.114c-0.276-3.25,0.055-6.487,0.514-9.705
			c0.213-1.489,0.571-3.013,0.53-4.522c-0.039-1.45-0.488-2.859-0.979-4.21c-0.54-1.482-1.56-3.326-0.387-4.783
			c0.831-1.032,2.313-1.281,3.552-1.032c0.709,0.142,1.382,0.464,1.943,0.919c0.768,0.622,1.236,1.525,1.898,2.248
			c1.689,1.846,3.945,3.075,5.963,4.524c-0.588,3.786,0.018,7.752,1.046,11.409c0.005,0.019,0.017,0.029,0.024,0.047
			c0.006,0.016,0.005,0.031,0.014,0.047c0.389,0.729,1.026,1.353,1.572,1.965c0.311,0.349,0.622,0.697,0.923,1.056
			c0.204,0.243,0.467,0.519,0.586,0.819c0.233,0.588,0.585,1.107,0.886,1.667c0.123,0.229,0.269,0.496,0.319,0.763
			c-0.251-0.169-0.467-0.426-0.673-0.641c-0.961-0.998-1.934-1.986-2.864-3.014C38.532,33.053,37.802,32.365,37.374,31.576z
			 M12.506,13.964c-1.973-0.454-4.451-1.262-6.408-0.365c-0.624,0.286-1.144,0.845-1.685,1.267
			c-0.645,0.502-1.371,0.992-1.906,1.614c-0.001,0.001-0.002,0.001-0.003,0.002c-0.307,0.325-0.849,0.327-1.255,0.223
			c-0.176-0.045-0.103-0.002-0.224-0.173c-0.086-0.12-0.248-0.291-0.217-0.44c0.074-0.347,0.38-0.643,0.616-0.887
			c0.351-0.362,0.744-0.685,1.128-1.012c0.591-0.503,1.331-1.049,1.589-1.814c0.126-0.372,0.089-0.63,0.517-0.778
			c0.492-0.171,1.071-0.126,1.586-0.126c1.49,0,2.973-0.141,4.465-0.105c1.633,0.039,3.262,0.211,4.879,0.433
			c1.575,0.216,3.143,0.485,4.712,0.736c1.004,0.161,1.981,0.137,2.956-0.008c-0.047,0.062-0.101,0.117-0.145,0.183
			c-0.76,1.129-0.573,2.386-0.176,3.603C19.443,15.616,15.975,14.763,12.506,13.964z"/>
	</g>
</g>
<g>
</g>
<g>
</g>
<g>
</g>
<g>
</g>
<g>
</g>
<g>
</g>
<g>
</g>
<g>
</g>
<g>
</g>
<g>
</g>
<g>
</g>
<g>
</g>
<g>
</g>
<g>
</g>
<g>
</g>
</svg>
