<?xml version="1.0" encoding="iso-8859-1"?>
<!-- Generator: Adobe Illustrator 19.0.0, SVG Export Plug-In . SVG Version: 6.00 Build 0)  -->
<svg version="1.1" id="Layer_1" xmlns="http://www.w3.org/2000/svg" xmlns:xlink="http://www.w3.org/1999/xlink" x="0px" y="0px"
	 viewBox="0 0 512 512" style="enable-background:new 0 0 512 512;" xml:space="preserve">
<g>
	<g>
		<path d="M420.225,208.937l-43.002-43.002l3.811-3.81c9.762,2.891,22.873-1.875,34.231-13.232
			c16.258-16.258,25.251-38.089,25.325-61.473c0.074-23.517-8.92-45.503-25.325-61.91c-34.016-34.014-89.366-34.014-123.381,0
			c-16.456,16.456-25.517,38.366-25.517,61.693c0,23.328,9.063,45.237,25.516,61.692l39.258,39.258l-47.599,47.599l-75.884-75.883
			c-15.457-15.456-36.037-23.969-57.949-23.969c-0.002,0,0,0-0.001,0c-21.912,0-42.492,8.513-57.948,23.968
			c-31.126,31.129-31.917,81.264-2.349,113.423c0.02,0.024,0.039,0.046,0.06,0.07c0.747,0.809,1.501,1.615,2.344,2.459l75.831,75.83
			l-26.304,26.305c-3.295,3.295-3.295,8.636,0,11.931c1.647,1.647,3.807,2.47,5.966,2.47c2.159,0,4.319-0.823,5.966-2.471
			l26.303-26.304l59.601,59.6c6.345,6.344,9.838,14.795,9.838,23.799c0,9.003-3.494,17.456-9.839,23.8
			c-4.561,4.562-7.073,10.624-7.073,17.075c0,6.451,2.511,12.513,7.073,17.075c4.561,4.561,10.624,7.072,17.075,7.072
			s12.514-2.511,17.075-7.072c31.952-31.952,31.953-83.943,0.001-115.898l-59.6-59.599l47.599-47.599l43.003,43.003
			c0.012,0.012,0.025,0.024,0.037,0.035c0.796,0.794,1.627,1.576,2.473,2.35c0.39,0.36,0.784,0.713,1.18,1.063
			c0.369,0.324,0.746,0.643,1.123,0.963c1.127,0.962,2.273,1.889,3.439,2.78c0.034,0.026,0.066,0.053,0.1,0.079
			c0.011,0.009,0.023,0.017,0.034,0.024c14.591,11.098,32.07,16.667,49.562,16.667c20.986,0,41.972-7.988,57.95-23.964
			C452.178,292.882,452.178,240.89,420.225,208.937z M369.153,135.797c-1.258,5.26-1.219,10.171,0.011,14.333l-3.873,3.873
			l-39.258-39.257c-15.186-15.188-15.186-39.899,0-55.085c15.187-15.188,39.897-15.185,55.084-0.001
			c15.187,15.188,15.187,39.899,0.001,55.085C375.329,120.535,370.967,128.207,369.153,135.797z M303.816,136.963
			c-13.267-13.267-20.574-30.938-20.574-49.758s7.307-36.492,20.574-49.758c27.437-27.437,72.079-27.437,99.517,0
			c13.204,13.204,20.443,30.934,20.383,49.923c-0.06,18.897-7.298,36.509-20.382,49.594c-9.19,9.19-16.922,9.723-17.822,8.837
			c-0.001-0.001-0.001-0.002-0.002-0.003c-1.397-1.944,0.089-11.667,7.541-19.118c21.766-21.766,21.766-57.18,0-78.95
			c-21.767-21.763-57.183-21.763-78.947,0c-21.766,21.767-21.766,57.183,0,78.95l39.259,39.258l-10.284,10.284L303.816,136.963z
			 M261.395,400.963c25.373,25.376,25.372,66.662-0.001,92.034c-1.374,1.375-3.199,2.13-5.142,2.13s-3.77-0.757-5.142-2.13
			c-1.374-1.374-2.13-3.199-2.13-5.141c0-1.943,0.756-3.769,2.13-5.141c9.532-9.533,14.781-22.222,14.782-35.733
			c0-13.511-5.249-26.2-14.781-35.732L103.818,263.956c-0.053-0.053-0.065-0.065-0.119-0.117c-0.003-0.005-0.008-0.008-0.011-0.012
			c-0.604-0.604-1.18-1.225-1.756-1.847c-17.649-19.542-16.877-49.449,1.762-68.086c1.037-1.037,2.113-2.023,3.222-2.955
			c-12.204,19.453-9.902,45.524,6.935,62.481c0.038,0.038,0.06,0.061,0.099,0.098c0.01,0.01,0.029,0.029,0.051,0.051
			L261.395,400.963z M201.795,317.499l-75.962-75.961c-0.008-0.008-0.022-0.023-0.039-0.038
			c-12.999-13.126-12.949-34.417,0.117-47.483c6.345-6.345,14.797-9.839,23.8-9.839c9.001,0,17.453,3.492,23.801,9.839l-0.001,0.001
			l75.885,75.883L201.795,317.499z M261.327,257.969l-74.741-74.742c-0.304-0.449-0.634-0.88-1.018-1.264
			c-12.529-12.528-29.186-19.428-46.903-19.428c-13.227,0-25.862,3.85-36.631,11.012c0.546-0.586,1.089-1.176,1.66-1.747
			c12.27-12.269,28.612-19.026,46.016-19.025c17.405,0,33.748,6.758,46.018,19.029l75.883,75.882L261.327,257.969z M386.075,313.026
			c-17.024,17.026-43.62,19.353-63.296,5.56c-0.982-0.75-1.928-1.524-2.848-2.311c-0.25-0.213-0.501-0.423-0.748-0.641
			c-0.318-0.279-0.629-0.563-0.939-0.846c-0.669-0.616-1.334-1.237-1.984-1.887l-43.002-43.003l10.283-10.284l43.003,43.003
			c16.951,16.951,43.053,19.316,62.56,7.098C388.15,310.859,387.141,311.962,386.075,313.026z M386.078,290.686
			c-13.125,13.125-34.479,13.123-47.602,0l-43.002-43.002l47.6-47.6l43.002,43.003v-0.001
			C399.199,256.21,399.2,277.563,386.078,290.686z M408.293,312.903c-0.607,0.607-1.233,1.188-1.858,1.766
			c7.155-10.765,11-23.392,11-36.613c0-17.716-6.899-34.373-19.428-46.901v-0.001l-43.002-43.002l10.284-10.285l43.002,43.002
			C433.666,246.243,433.667,287.529,408.293,312.903z"/>
	</g>
</g>
<g>
</g>
<g>
</g>
<g>
</g>
<g>
</g>
<g>
</g>
<g>
</g>
<g>
</g>
<g>
</g>
<g>
</g>
<g>
</g>
<g>
</g>
<g>
</g>
<g>
</g>
<g>
</g>
<g>
</g>
</svg>
