<?xml version="1.0" encoding="iso-8859-1"?>
<!-- Generator: Adobe Illustrator 18.0.0, SVG Export Plug-In . SVG Version: 6.00 Build 0)  -->
<!DOCTYPE svg PUBLIC "-//W3C//DTD SVG 1.1//EN" "http://www.w3.org/Graphics/SVG/1.1/DTD/svg11.dtd">
<svg version="1.1" id="Capa_1" xmlns="http://www.w3.org/2000/svg" xmlns:xlink="http://www.w3.org/1999/xlink" x="0px" y="0px"
	 viewBox="0 0 451.179 451.179" style="enable-background:new 0 0 451.179 451.179;" xml:space="preserve">
<path d="M354.179,178.82c-7.39,0-14.588,0.834-21.509,2.407l11.948-11.955c12.498-12.523,12.491-32.878-0.015-45.37
	c-9.857-9.857-24.821-12.238-37.223-5.931c-2.976,1.506-5.719,3.498-8.163,5.931l-59.677,59.695v-75.214
	c0-16.559-13.472-30.029-30.03-30.029c-8.02,0-15.561,3.124-21.231,8.797c-5.674,5.672-8.798,13.213-8.798,21.232v135.292
	l-54.619,54.636c-5.439-29.226-31.113-51.428-61.892-51.428C28.248,246.884,0,275.132,0,309.854c0,34.722,28.248,62.97,62.97,62.97
	c12.475,0,24.646-3.735,34.932-10.601c5.379,6.679,13.441,10.601,22.469,10.601h136.09c7.807,0,15.147-3.042,20.672-8.567
	c5.327-5.327,8.331-12.319,8.547-19.823c17.56,17.531,41.786,28.387,68.5,28.387c53.486,0,97-43.514,97-97
	S407.665,178.82,354.179,178.82z M191.48,108.384c0-4.813,1.876-9.341,5.283-12.747c3.405-3.406,7.933-5.282,12.746-5.282
	c9.942,0,18.03,8.088,18.03,18.029v87.217l-36.06,36.071V108.384z M12,309.854c0-28.105,22.865-50.971,50.97-50.971
	c27.903,0,50.629,22.54,50.955,50.367l-14.057,14.061c-7.579,7.578-10.282,18.093-7.469,28.144
	c-8.559,6.062-18.86,9.367-29.43,9.367C34.865,360.824,12,337.959,12,309.854z M268.647,355.772
	c-3.259,3.258-7.587,5.052-12.188,5.052H120.37c-8.372,0-13.603-5.426-15.706-10.504c-2.101-5.07-2.234-12.6,3.689-18.523
	l199.339-199.399c1.539-1.532,3.258-2.783,5.117-3.726c7.769-3.948,17.136-2.459,23.311,3.718c7.828,7.82,7.83,20.563,0.006,28.403
	l-31.871,31.891c-27.59,16.63-46.274,46.597-47.051,80.909c-0.017,0.741-0.333,4.355-0.516,5c-1.707,6.034-4.76,11.654-8.941,16.375
	l-17.159,19.387H162.69c-3.313,0-6,2.687-6,6s2.687,6,6,6h70.6h22.64c9.625,0,17.593,7.59,17.762,16.909
	C273.771,347.998,271.979,352.44,268.647,355.772z M265.935,316.076c-3.134-1.113-6.504-1.721-10.005-1.721h-9.316l10.119-11.433
	c1.143-1.291,2.216-2.638,3.227-4.028C261.419,304.854,263.428,310.602,265.935,316.076z M354.179,360.82c-46.869,0-85-38.131-85-85
	s38.131-85,85-85s85,38.131,85,85S401.048,360.82,354.179,360.82z"/>
<g>
</g>
<g>
</g>
<g>
</g>
<g>
</g>
<g>
</g>
<g>
</g>
<g>
</g>
<g>
</g>
<g>
</g>
<g>
</g>
<g>
</g>
<g>
</g>
<g>
</g>
<g>
</g>
<g>
</g>
</svg>
