<svg width="215" height="135" fill="none" xmlns="http://www.w3.org/2000/svg"><g clip-path="url(#a)" fill-rule="evenodd" clip-rule="evenodd"><path d="M64.8 132.2h.5v-1.1a3 3 0 0 0 2 1.2 3.1 3.1 0 1 0-2-4.9v-4.3h-.5v9.1Zm1.2-4.8a2.6 2.6 0 1 1-.7 2.4v-1c.1-.6.4-1 .7-1.4Zm10.4-.8h-.6l-1.9 4-1.9-4h-.5l2.1 4.6-1.5 3.2h.6l3.7-7.8Zm8.5-3.6a4.7 4.7 0 1 0 0 9.4 4.7 4.7 0 0 0 0-9.4Zm3 1.7a4.2 4.2 0 1 1-6 5.9 4.2 4.2 0 0 1 6-5.9Zm4.8 1.9-1.6 1.9v-4.3h-.5v8h.5v-2.9l.5-.6 1.9 3.5h.6l-2.2-3.9 1.4-1.7h-.6Zm4.2 3.1a1.1 1.1 0 0 1 .3.8 1.2 1.2 0 0 1-1.5 1.1 1.1 1.1 0 0 1-.8-1h-.5a1.5 1.5 0 0 0 .5 1.1 1.7 1.7 0 0 0 2.4 0 1.7 1.7 0 0 0 0-2.3l-1-.7-.7-.5a.8.8 0 0 1 .1-1.3l.5-.1a.8.8 0 0 1 .6.2l.2.7.5-.2a1.1 1.1 0 0 0-.4-.8 1.2 1.2 0 0 0-1-.4 1.3 1.3 0 0 0-.9.4 1.3 1.3 0 0 0 0 1.9l1 .6.7.5Zm6.3-3.1h-.6l-1.9 4-1.9-4h-.5l2 4.6-1.4 3.2h.6l3.7-7.8Zm11.3-3.5-3.3 4.3-3.3-4.3h-.8v9.1h.5v-8.6l3.6 4.7 3.5-4.7v8.6h.5v-9.1h-.7Zm8 3.5h-.5v.8a3.1 3.1 0 1 0 0 3.7v1.1h.5v-5.6Zm-1.2 4.5a2.6 2.6 0 1 1 .7-2.4v1c-.1.5-.4 1-.7 1.4Zm2-4.5v.5h1.1v5.1h.5v-5h1.2v-.6h-1.2v-2.4h-.5v2.4h-1.1Zm3.6 5.6h.5v-4.5l.4-.4a1.7 1.7 0 0 1 3 1.2v3.7h.4v-3.8a2.2 2.2 0 0 0-2.1-2.1h-.1a2.2 2.2 0 0 0-1.6.6v-3.8h-.5v9.1Zm6.6-4.8a2.6 2.6 0 0 1 3.7 0c.2.3.5.6.6 1h-5l.7-1Zm4.9 1.5a2.7 2.7 0 0 0-.8-1.9 3.1 3.1 0 1 0 0 4.4l.4-.4-.6-.2-.2.3a2.6 2.6 0 0 1-2.9.5 2.6 2.6 0 0 1-1.4-1.4l-.2-1v-.3h5.7Zm6.7-2.3-1.5 4.6-1.3-3.7h-.3l-1.3 3.7-1.5-4.6h-.6l1.9 5.6h.3l1.3-3.7 1.3 3.7h.3l2-5.6h-.6Zm3.4 3.1a1.1 1.1 0 0 1 0 1.7c-.2.2-.5.3-.8.3a1.2 1.2 0 0 1-.8-.3c-.3-.3-.4-.6-.4-.9l-.5.1a1.5 1.5 0 0 0 .5 1.1 1.6 1.6 0 0 0 1.8.4l.6-.4a1.7 1.7 0 0 0 0-2.3l-1-.7-.7-.5a.8.8 0 0 1-.2-.9.8.8 0 0 1 .8-.5.7.7 0 0 1 .6.2l.2.7.5-.2a1.1 1.1 0 0 0-.4-.8 1.3 1.3 0 0 0-1.9 0 1.3 1.3 0 0 0 0 1.9l1 .6.7.5Z" fill="#1A1A1A"/><path d="m143.6 103.4-.2 1-1.2 4.9c-.5 1.5-1.1 3-2 4.4-1 1.4-1.8 1.9-2.4 1.5a4 4 0 0 1-1.4-2.6c-.5-2.3-.7-4.7-.8-7a119.8 119.8 0 0 1 .2-13c0-.3-.2-.5-.4-.6a1.3 1.3 0 0 0-1.2-.4 1.3 1.3 0 0 0-1 1v.5c-.3-.8-.7-1.4-1.3-2-.3-.2-.7-.5-1.1-.6-1-.4-2-.4-3 0-1 .3-2 .9-3 1.5a14 14 0 0 0-3.8 5.7 22 22 0 0 0-1.2 5.2l-1.9 3.3a173.7 173.7 0 0 1-4.6 7.8c-.6.8-1 1.2-1.3 1-.2-.3-.2-1.1 0-2.8l1.3-5.9c.6-2.1 1-4.3 1.5-6.5.4-1.9.5-3.9.3-5.8-.2-1.7-.7-2.9-1.5-3.4a2.8 2.8 0 0 0-2.6-.4c-1.1.4-2.1 1-3 1.8-1.5 1.4-2.8 3-4 4.8a52.3 52.3 0 0 0-3.6 6.8l.1-1.1a63.3 63.3 0 0 1 .4-4.3l-.4-.5a1.3 1.3 0 0 0-1.2-.3c-.4.2-.8 1-1 2.6-.3 1.1-.4 2.2-.5 3.3a61.8 61.8 0 0 1-6.5 11.7c-.5.6-.8.4-.9-.5 0-1.4 0-2.8.2-4.2a105.1 105.1 0 0 1 1.8-11.9 136.8 136.8 0 0 1 1.2-6.2l.2-1.2c.3-1.4.4-2.7.5-4 0-.9 0-1.7-.4-2.5a2.5 2.5 0 0 0-1.3-1.5 2.6 2.6 0 0 0-2.3.5 17.5 17.5 0 0 0-4.7 5 67.8 67.8 0 0 0-4.4 8c-1.4 3-2.7 5.7-3.7 8.3.2-2.5.3-5 .2-7.5 0-1.7-.4-3.4-1-5a3.1 3.1 0 0 0-2.4-2.2c-1.1-.1-2.4.6-4 2.2a23.4 23.4 0 0 0-5 9.7v-2.7a2 2 0 0 0-.5-1.6 1 1 0 0 0-1.2-.2 1.5 1.5 0 0 0-.7 1.4l-.2 3.9-.3.4c-.7.9-1.5 1.7-2.4 2.3l-3 1.9A143.7 143.7 0 0 0 54.3 92v-.7c-.2-.7-.5-1.1-.9-1.2a1.3 1.3 0 0 0-1.1.1 1.2 1.2 0 0 0-.6.9c-.2 1.6-.6 3.1-1 4.7-.8 2.4-1.8 4.7-3.2 6.8-1.2 1.9-2.2 2.8-2.9 3-.7.1-1.2-.5-1.4-1.7-.2-2-.2-4 .1-5.9l1.2-6c.2-.7.1-1.2-.2-1.5a1.8 1.8 0 0 0-1.4-.4c-.5 0-1 0-1.6.2a1 1 0 0 0-.6.7c-.1.3 0 .5.4.6l.6.3a.8.8 0 0 1 0 .6c-.6 2.6-1 5.4-1.2 8.1 0 1 .1 2 .4 2.8a43 43 0 0 1-6.6 15.2 13.4 13.4 0 0 1-5.4 5 3.6 3.6 0 0 1-2.8 0c-.9-.4-1.6-1-2.2-1.8-.6-.8-1-1.6-1.4-2.5 2.2-1.5 4-3.3 5.5-5.5a38 38 0 0 0 5.7-12.8c.3-1.4.4-2.7.4-4 0-2.6-.5-4.3-1.4-5.1a3 3 0 0 0-3.3-.6 10 10 0 0 0-3.8 2.5 15.8 15.8 0 0 0-3 4.3 40.3 40.3 0 0 0-3.1 10.3 28 28 0 0 0 .3 10.8 6 6 0 0 1-2.7.2c-5.9-2.4-6.5-13.2-2.5-29.2l.6-2.1 1.2-.1a75 75 0 0 0 6.6-.8c2.2-.3 4.3-1 6.2-2 1.6-.7 3-1.7 4.2-3 1-1 1.7-2 2.3-3.4.8-2.3.8-4.3 0-6a8 8 0 0 0-4.2-3.7A12.3 12.3 0 0 0 19.1 71c-3.3 3-5.8 6.7-7.4 10.9-.8 1.8-1.4 3.7-2 5.6-2 .3-4 1-5.8 2.1a9.4 9.4 0 0 0-3.8 5.1c-.1.3-.1.5 0 .8 0 .3.4.4 1 .2a1.2 1.2 0 0 0 .7-.7 1.3 1.3 0 0 0 0-1 7.7 7.7 0 0 1 2.6-3.2 15 15 0 0 1 4.9-2A51.1 51.1 0 0 0 7.8 110a20 20 0 0 0 1.6 5.4 10 10 0 0 0 3.2 4c1.5 1 3.3 1.5 5.2 1.4.9 0 1.7-.1 2.5-.4a7.7 7.7 0 0 0 4.2 4.4 6.8 6.8 0 0 0 6-.4c2-1.3 3.7-3.1 5-5.2a43 43 0 0 0 6-14.6 3.6 3.6 0 0 0 2.4 2.2c1 .2 2.2-.4 3.5-1.8a24.4 24.4 0 0 0 4.3-7.6c0 1.5.5 6.6.7 12l-3.3 1.9a20.3 20.3 0 0 0-8.8 11.4c-.9 3-.8 5.6.1 7.7a6 6 0 0 0 6 3.8 9.7 9.7 0 0 0 6.8-3.1c1.7-2 2.8-4.2 3.3-6.7a56.6 56.6 0 0 0 .5-15.8c1.1-.5 2.2-1 3.2-1.7a16 16 0 0 0 2.4-2v3.4l-.1 3.6a1.3 1.3 0 0 0 .4 1c.3.3.6.3 1 .3l.8-.3a1.2 1.2 0 0 0 .3-1c.2-2.5.6-5 1.2-7.4.4-2.4 1.2-4.8 2-7 .8-1.6 1.7-3.1 2.9-4.4l1.2-1c3.6-2.4 1.4 13.8.3 17-1 3.3-.2 4 2.2 4.2h.7a1 1 0 0 0 .9-.8 41.7 41.7 0 0 1 2.4-7.6c1-2.6 2.2-5.3 3.5-8A65.8 65.8 0 0 1 89 86.2c2-1.3 1.7 1 1 4-.9 4.5-3 10-4 17-1.4 9.3 1.9 9.3 4 9.5h.3c.8 0 1.8-1 3.2-3a62 62 0 0 0 4.1-7.1v3.8c0 1.6.1 2.5.4 2.7a1.4 1.4 0 0 0 1.2-.1 1.2 1.2 0 0 0 .8-1 27.8 27.8 0 0 1 2.6-9.8 55 55 0 0 1 6.1-9.1c2-1.3 2.6 1 1.5 4.9-1 4-2 7.9-2.5 12-1 7 2 6.7 3.6 7 .6 0 1.4-.5 2.5-1.6a99.3 99.3 0 0 0 6.1-9.9c0 1.8.5 3.5 1.3 5a4.9 4.9 0 0 0 6.4 2.3 5 5 0 0 0 1.8-1.5c1-1.3 1.8-2.8 2.3-4.4a34.4 34.4 0 0 0 1.3-5.2 45.2 45.2 0 0 0 1 10.1l.5 1.6.8 1.8a2.9 2.9 0 0 0 2.5 1.7 3.7 3.7 0 0 0 2.7-1.5 15 15 0 0 0 2.6-5.6 28.7 28.7 0 0 0 1-7.5c0-.3-.2 0-.4 1ZM32.2 71c.8.4 1.4 1 2 1.7 1 1.5 1.1 3.4.3 5.7a9 9 0 0 1-2 3c-1.2 1.1-2.4 2-3.8 2.7-1.9 1-3.9 1.6-6 2l-6.4.7h-.7c4.5-13.3 13-16.9 16.6-15.8Zm-10 37.8c.4-3.3 1.4-6.5 2.7-9.6a18 18 0 0 1 2-3.2c.8-1 1.7-2 2.7-2.6a2 2 0 0 1 2.3-.3c.7.5 1 1.7 1 3.8 0 1.3 0 2.5-.4 3.8a34.7 34.7 0 0 1-5.5 12.4 20.3 20.3 0 0 1-4.8 4.9c-.6-3-.6-6.2 0-9.2Zm30 14.3c-1.1 6.7-4.7 10-9 8.7l.4.4a5.2 5.2 0 0 1-1.9-2.3c-.8-1.8-.8-4 0-6.8a20 20 0 0 1 3.4-6.6c1.3-1.6 2.9-3 4.6-4l3-1.8c.2 4.2 0 8.3-.4 12.4Zm80.5-27.9a155 155 0 0 1-1.1 5.7 38 38 0 0 1-1.8 6 9.8 9.8 0 0 1-2.3 4 2 2 0 0 1-.9.6c-3.5-1.2-2.8-8-2.1-10.7 1-4.3 3-8.6 5.8-9l.5.2c.8.3 1.5 1.4 2 3.2Zm43.4-7.7c-.6.4-1 1.1-1.2 1.8-.4 1.5-.5 2.6-.3 3.1.3.6.7.7 1.3.3.7-.7 1.2-1.7 1.4-2.7.4-1.2.4-2 0-2.4-.3-.4-.7-.4-1.2 0v-.1Zm21.4 14.8c-.3 0-.5.3-.7.7-.7 1.6-1.6 3.1-2.7 4.5a14 14 0 0 1-3.8 3.4 3.6 3.6 0 0 1-3.6.3c-1-.5-1.8-2-2.3-4.5a15.3 15.3 0 0 1 0-4.8 33.8 33.8 0 0 1 2.4-8 4.3 4.3 0 0 1 2.4-2.6 1.1 1.1 0 0 1 1.2.5c.2.3.3.8.3 1.2 0 .6 0 .9.3.9.2 0 .4-.1.6-.5.3-.4.4-.8.3-1.3a2.4 2.4 0 0 0-1-1.6c-.4-.3-1-.5-1.4-.5-2.8-.4-7.8 1.6-9 9.5a19 19 0 0 0-.2 6.3 81.8 81.8 0 0 1-2.5 4.4c-2.4 1.1-2.4-2.7-2-5.7.5-3.4.7-6.2 1-7.7.3-1.7.4-4-2.4-2.7a.9.9 0 0 0-.9.7 60.8 60.8 0 0 0-1.3 9 25.7 25.7 0 0 1-4.2 6.9l-1.1.8c-3.6.8-2.2-9.4-1.6-15.4.4-4 1-8.8 1.6-12.6 1.8.5 7.7 2.3 12.5 2.3 5.9 0 7.5-4 7.7-5.8a29 29 0 0 0-4.5-19.2 32 32 0 0 0-16.8-14.2c-14.1-5.6-14.6-10-15.1-15.6-.6-5.7-1.3-9.5-5.4-11-4.2-1.5-8.6 0-12.6 1.3-.2-.7-1-.9-4-1.1-3-.3-5 0-9.4 1.8-4.4 1.7-12.3 3.2-15.5 6-3.3 2.7-4.6 2.9-5.6 3-1 .3-3.4.3-5.2.5-1.9.1-3.1.3-3.2-.7-.2-1 1.7-1.6 3.6-1.6 1 0 2-.2 2.8-.5.1.1 0 1.5 2.1 1.6 2 0 3.2-2.6 2.4-4-.8-1.3-2.3-.6-2.3-.6.3-1.4.2-2.8-.3-4.1a4.9 4.9 0 0 0-3-2.6 26 26 0 0 0-4-.3 7 7 0 0 1-2.8-.5c-.8-.3-1-.2-1 .3s.3.8-.7 1.2c-1 .5-2.2 1.3-2 2.4.2 1 .8 2.4.3 3.3-.5 1-2.8 5.1-3.6 4.8-.8-.4.3-2 .8-3.3a7 7 0 0 0-.1-4 15 15 0 0 1 0-4.5l.7-5.3c2.6-2.9 5.4-5.6 8.4-8.1 3.4-2.7 3.6-.8 7-1.7 3.2-1 4.8-2.8 4.6-3-.3-.4-1-.6-3.8 0-2 .3-3.9.4-5.8.3-1.9 0-1.8 1.6-5.3 3.4-3 1.7-5.7 3.1-8 6-2.3 2.7-3 7.5-3 13.7 0 6.3-.6 6-1.5 8.3-.8 2.2-3.4 5.3-3.5 7 .1 1 .5 2.2 1.2 3.1.3.6.2 6.7.7 8.8.5 2 3.4 5.2 2.8 5.2h-5.1a38.8 38.8 0 0 1-11.3-1.3c-2 .2-4.1.2-6.1 0-4.1-.1-9-.2-12.7-.7-3.7-.5-3.8-1.1-7.1-1.7-2.3-.5-4.7-.5-7 0-2.8.4-5 1-5.7 2.6-.2.4 0 1 1.3.7.3-.1.8-.6 1.4-.4.5.2 1.3-.3 3.8.2s1.6 2 3.3 3c1.7 1 3-.6 4.5-1.2 1.6-.5 2.1-.4 8.4 2.3 6.3 2.7 9.3.7 12.7 1 3.3.3 2.8 2 10 4a37.7 37.7 0 0 0 16.8.8c3.8-.6 5.6.4 8.7 1.5 3 1 5.8.1 8-.1 2.3-.3 9-1.7 13.5-2.4s5.8-1.8 10.3-3.4c4.5-1.6 6.6-2.3 9.4-2.3 2.8 0 4.2.5 6.9.7 2.6.2 3.7-.8 5.7-.8s4.7-3 3.4-3.8a1.5 1.5 0 0 0-1.8.4c-1.1.5-2.4.8-3.6.7-3.1-.2-3-2.6-4.2-3.4a1.9 1.9 0 0 0-2.7 1c-.2.6-.2 2.1-2.6 2.3-2.5.2-3.6-.6-9.5-1-5.8-.3-6.7 2.6-9.8 2.8-3 0-5.8-.7-9.8-.8-4.1 0-7.9 1.2-8.5 1.1-.6-.1-.7-2.4-3-4-2.4-1.5-5.8-1.4-7.1-3.7-1.4-2.4.1-6.1 6-11 5.8-5 11.1-6 17.4-9 6.3-3 7.8-7 13.3-6.6 5.6.3 6.9-.8 6.9-.8 2.5-.3 5-2.7 10.9-2.6 5.3.5 7.4 1.9 8 11 .6 9.2 3.7 11.2 15.6 16.6 18 8 21.5 26 20.3 31.5-.5 4.7-4.7 4.9-6.8 4.8a27 27 0 0 1-4-.6c-2.4-.5-4.4-1-7.4-1.9.3-2.1.6-3.9.9-4.9.7-3 1.6-6.9-2.2-4.2l-1.1 1a9.5 9.5 0 0 0-1.8 3.8l-.6 3c-2.5-.7-5-1.2-7.5-1.5-2-.3-4-.2-6 .3a5 5 0 0 0-3.4 3.3c-.3.7-.4 1.5-.3 2.3.2.5.4.8.7.8.3 0 .4-.4.5-1a4.6 4.6 0 0 1 1.9-3.7 7 7 0 0 1 4-1c1.7.1 3.4.4 5 .8l4.8 1.4a97 97 0 0 0-1.7 20c-2.3-.1-4.5.4-6.5 1.5-4.2-4.7-5.7-7.4-6-10.8-.5-3.7 2.9-5.8 4.8-5.2l.5.2c.5.2 1 .4 1.3.7 1 .9 1.7 2 2.1 3.2.3.6.6.8.8.6.3-.2.4-.6.2-1.3-.3-1-.8-2-1.5-2.7-1-1.2-2.5-2-4.1-2.2a7.5 7.5 0 0 0-6 1.8 7.9 7.9 0 0 0-2.6 5.3c-.2 2.3.5 4.7 1.9 6.5 1 1.6 2.5 3.3 4.2 5.3l1 1.1c-1.2 1-2.3 2.3-3.1 3.7-1.5 2.5-2 4.5-1.7 6.1a5.2 5.2 0 0 0 2.6 3.7 9 9 0 0 0 7 .6h.1a5.7 5.7 0 0 0 2.7-1.8c3.6-3.5.7-9.2-3-13.3l-.4-.4a11 11 0 0 1 5.7-1.2l.2 2.2c.1 1.6.5 3.2 1 4.7.8 1.9 2 3 3.2 3 1.4.2 2.7-.4 4-1.7a19.7 19.7 0 0 0 3.4-4.7c0 1 0 1.9.2 2.8a7 7 0 0 0 1.1 2.7 2.1 2.1 0 0 0 2.2 1c1-.3 1.8-.9 2.5-1.7a18.3 18.3 0 0 0 2.5-3.8c.9 3.4 3 5.5 6.1 5.5.8 0 1.7 0 2.5-.4 1.7-.7 3.4-1.7 4.7-3.1a19 19 0 0 0 3.5-5.2c.2-.5.4-1.2.4-1.8 0-.5-.2-.7-.4-.6Zm-42.3 9.7a8 8 0 0 1 1.2 2.9 3.5 3.5 0 0 1-.8 3.1 4.5 4.5 0 0 1-3.3 1.3c-1.2 0-2.4-.3-3.4-1a4 4 0 0 1-2-2.9c-.2-1.3.3-3 1.5-5.1a15 15 0 0 1 2.8-3.4 64 64 0 0 1 4 5Zm59.5-9.7a2 2 0 0 0-1-.3 12 12 0 0 0-6.1 1.3h-.1c-5.7-5-7-7.3-6-11.7a4.2 4.2 0 0 1 6.3-3.1c.9.8 1.6 1.9 2 3 .4.7.6 1 .9.8.2-.2.3-.7.2-1.4-.3-1-.9-2-1.6-2.7-1-1.2-2.5-2-4-2.2a7.5 7.5 0 0 0-8.6 7c-.2 2.4.5 4.7 1.9 6.6a82 82 0 0 0 4.2 5.2l1 1.2c-1.2 1-2.2 2.2-3 3.6-1.5 2.5-2.1 4.5-1.8 6.2a5.2 5.2 0 0 0 2.6 3.6c1.2.7 2.7 1.1 4.1 1a9 9 0 0 0 3.5-.6v.1l.5-.2 1-.7c6.2-4.4 2.3-10.5-2-14.8a11.1 11.1 0 0 1 5.9-.9l.2-.1.3-.5-.4-.4Zm-5 12.5a3.4 3.4 0 0 1-.8 3.2 4.5 4.5 0 0 1-3.2 1.2c-1.2 0-2.4-.3-3.5-1a4 4 0 0 1-2-2.9c-.2-1.3.3-3 1.6-5.1a15 15 0 0 1 2.8-3.3c1.5 1.7 2.8 3.4 3.9 5a8 8 0 0 1 1.3 2.9Z" fill="url(#b)"/></g><defs><linearGradient id="b" x1="42.9" y1="33.4" x2="169.8" y2="160.2" gradientUnits="userSpaceOnUse"><stop stop-color="#B31180"/><stop offset=".2" stop-color="#A21581"/><stop offset=".5" stop-color="#8B1C81"/><stop offset=".8" stop-color="#7D2082"/><stop offset="1" stop-color="#782182"/></linearGradient><clipPath id="a"><path fill="#fff" d="M0 0h215v134.4H0z"/></clipPath></defs></svg>