<svg width="1920" height="3197" fill="none" xmlns="http://www.w3.org/2000/svg"><g clip-path="url(#a)"><path fill="#fff" d="M0 0h1920v3197H0z"/><g filter="url(#b)"><circle cx="1293.5" cy="1000.5" r="146.5" fill="#B8D2F7"/></g><g opacity=".3"><path d="M-205 1145a66 66 0 0 1-33-69l137-738c5-28 28-49 56-53l744-98c28-4 55 11 68 37l323 677c12 26 6 56-14 76l-545 516a66 66 0 0 1-76 10l-660-358Z" fill="url(#c)"/><path d="M-205 1145a66 66 0 0 1-33-69l137-738c5-28 28-49 56-53l744-98c28-4 55 11 68 37l323 677c12 26 6 56-14 76l-545 516a66 66 0 0 1-76 10l-660-358Z" fill="url(#d)"/></g><g opacity=".3"><path d="M582 2424a66 66 0 0 1-33-69l137-738c5-28 28-49 56-53l744-98c28-4 55 11 68 37l323 677c12 26 6 56-14 76l-545 516a66 66 0 0 1-76 10l-660-358Z" fill="url(#e)"/><path d="M582 2424a66 66 0 0 1-33-69l137-738c5-28 28-49 56-53l744-98c28-4 55 11 68 37l323 677c12 26 6 56-14 76l-545 516a66 66 0 0 1-76 10l-660-358Z" fill="url(#f)"/></g><path d="M452 617a156 156 0 1 1-285-128 156 156 0 0 1 285 128Z" stroke="url(#g)" stroke-width="10"/><g filter="url(#h)"><ellipse cx="274" cy="1275.5" rx="171.3" ry="94.5" fill="#F5B4FB"/></g><circle cx="717.8" cy="1694.8" r="132" transform="rotate(-13 718 1695)" stroke="url(#i)" stroke-width="10"/><g filter="url(#j)"><circle cx="682.5" cy="2297.5" r="146.5" fill="#B8D2F7"/></g><circle cx="1656.5" cy="414.5" r="14.5" fill="url(#k)"/><circle cx="1216.5" cy="172.5" r="24.5" fill="url(#l)"/><circle cx="584.5" cy="1696.5" r="14.5" fill="url(#m)"/><circle cx="1558.5" cy="851.5" r="45.5" fill="url(#n)"/><circle cx="729.5" cy="2898.2" r="45.5" fill="url(#o)"/><circle cx="351.2" cy="391.5" r="49" transform="rotate(61 351 392)" fill="url(#p)"/><circle cx="367.3" cy="716.7" r="14.5" transform="rotate(61 367 717)" fill="url(#q)"/><circle cx="1652.5" cy="2017.5" r="14.5" fill="url(#r)"/><circle cx="423.5" cy="2191.5" r="21.5" fill="url(#s)"/><circle cx="415" cy="1397" r="44" fill="url(#t)"/></g><defs><radialGradient id="c" cx="0" cy="0" r="1" gradientUnits="userSpaceOnUse" gradientTransform="rotate(21 -1717 837) scale(935.157 2182.48)"><stop stop-color="#fff"/><stop offset=".4" stop-color="#E8B4E2"/><stop offset="1" stop-color="#7775E7"/></radialGradient><radialGradient id="e" cx="0" cy="0" r="1" gradientUnits="userSpaceOnUse" gradientTransform="rotate(21 -4696 3552) scale(935.157 2182.48)"><stop stop-color="#fff"/><stop offset=".4" stop-color="#E8B4E2"/><stop offset="1" stop-color="#7775E7"/></radialGradient><radialGradient id="k" cx="0" cy="0" r="1" gradientUnits="userSpaceOnUse" gradientTransform="rotate(38 223 2609) scale(26.0048 32.448)"><stop stop-color="#fff"/><stop offset=".4" stop-color="#E8B4E2"/><stop offset="1" stop-color="#7775E7"/></radialGradient><radialGradient id="l" cx="0" cy="0" r="1" gradientUnits="userSpaceOnUse" gradientTransform="matrix(34.63797 27.0345 -33.73278 43.22012 1210 173)"><stop stop-color="#fff"/><stop offset=".4" stop-color="#E8B4E2"/><stop offset="1" stop-color="#7775E7"/></radialGradient><radialGradient id="m" cx="0" cy="0" r="1" gradientUnits="userSpaceOnUse" gradientTransform="matrix(20.5 16 -19.9643 25.57927 581 1697)"><stop stop-color="#fff"/><stop offset=".4" stop-color="#E8B4E2"/><stop offset="1" stop-color="#7775E7"/></radialGradient><radialGradient id="n" cx="0" cy="0" r="1" gradientUnits="userSpaceOnUse" gradientTransform="matrix(64.3276 50.2069 -62.64687 80.26632 1546 853)"><stop stop-color="#fff"/><stop offset=".4" stop-color="#E8B4E2"/><stop offset="1" stop-color="#7775E7"/></radialGradient><radialGradient id="o" cx="0" cy="0" r="1" gradientUnits="userSpaceOnUse" gradientTransform="matrix(64.3276 50.2069 -62.64687 80.26632 717 2900)"><stop stop-color="#fff"/><stop offset=".4" stop-color="#E8B4E2"/><stop offset="1" stop-color="#7775E7"/></radialGradient><radialGradient id="p" cx="0" cy="0" r="1" gradientUnits="userSpaceOnUse" gradientTransform="matrix(69.27585 54.06895 -67.46567 86.4404 338 393)"><stop stop-color="#fff"/><stop offset=".4" stop-color="#E8B4E2"/><stop offset="1" stop-color="#7775E7"/></radialGradient><radialGradient id="q" cx="0" cy="0" r="1" gradientUnits="userSpaceOnUse" gradientTransform="rotate(38 -861 887) scale(26.0048 32.448)"><stop stop-color="#fff"/><stop offset=".4" stop-color="#E8B4E2"/><stop offset="1" stop-color="#7775E7"/></radialGradient><radialGradient id="r" cx="0" cy="0" r="1" gradientUnits="userSpaceOnUse" gradientTransform="rotate(38 -2108 3405) scale(26.0048 32.448)"><stop stop-color="#fff"/><stop offset=".4" stop-color="#E8B4E2"/><stop offset="1" stop-color="#7775E7"/></radialGradient><radialGradient id="s" cx="0" cy="0" r="1" gradientUnits="userSpaceOnUse" gradientTransform="matrix(30.3966 23.72417 -29.60228 37.92792 418 2192)"><stop stop-color="#fff"/><stop offset=".4" stop-color="#E8B4E2"/><stop offset="1" stop-color="#7775E7"/></radialGradient><radialGradient id="t" cx="0" cy="0" r="1" gradientUnits="userSpaceOnUse" gradientTransform="matrix(62.20687 48.5517 -60.58135 77.61986 403 1399)"><stop stop-color="#fff"/><stop offset=".4" stop-color="#E8B4E2"/><stop offset="1" stop-color="#7775E7"/></radialGradient><linearGradient id="d" x1="432.1" y1="551.8" x2="494.7" y2="74.7" gradientUnits="userSpaceOnUse"><stop stop-color="#fff"/><stop offset="1" stop-color="#fff" stop-opacity="0"/></linearGradient><linearGradient id="f" x1="1219.1" y1="1830.8" x2="1281.7" y2="1353.7" gradientUnits="userSpaceOnUse"><stop stop-color="#fff"/><stop offset="1" stop-color="#fff" stop-opacity="0"/></linearGradient><linearGradient id="g" x1="490.6" y1="411.2" x2="248.4" y2="765.7" gradientUnits="userSpaceOnUse"><stop stop-color="#D0C5F2"/><stop offset="1" stop-color="#fff" stop-opacity="0"/></linearGradient><linearGradient id="i" x1="809.4" y1="1521.7" x2="744" y2="1881" gradientUnits="userSpaceOnUse"><stop stop-color="#D0C5F2"/><stop offset="1" stop-color="#fff" stop-opacity="0"/></linearGradient><filter id="b" x="953" y="660" width="681" height="681" filterUnits="userSpaceOnUse" color-interpolation-filters="sRGB"><feFlood flood-opacity="0" result="BackgroundImageFix"/><feBlend in="SourceGraphic" in2="BackgroundImageFix" result="shape"/><feGaussianBlur stdDeviation="97" result="effect1_foregroundBlur_4_586"/></filter><filter id="h" x="-91.3" y="987" width="730.7" height="576.9" filterUnits="userSpaceOnUse" color-interpolation-filters="sRGB"><feFlood flood-opacity="0" result="BackgroundImageFix"/><feBlend in="SourceGraphic" in2="BackgroundImageFix" result="shape"/><feGaussianBlur stdDeviation="97" result="effect1_foregroundBlur_4_586"/></filter><filter id="j" x="342" y="1957" width="681" height="681" filterUnits="userSpaceOnUse" color-interpolation-filters="sRGB"><feFlood flood-opacity="0" result="BackgroundImageFix"/><feBlend in="SourceGraphic" in2="BackgroundImageFix" result="shape"/><feGaussianBlur stdDeviation="97" result="effect1_foregroundBlur_4_586"/></filter><clipPath id="a"><path fill="#fff" d="M0 0h1920v3197H0z"/></clipPath></defs></svg>